<?xml version="1.0" encoding="UTF-8"?>
<!DOCTYPE svg PUBLIC "-//W3C//DTD SVG 1.1//EN" "http://www.w3.org/Graphics/SVG/1.1/DTD/svg11.dtd">
<!-- Creator: CorelDRAW -->
<svg xmlns="http://www.w3.org/2000/svg" xml:space="preserve" width="112.869mm" height="88.6515mm" version="1.1" style="shape-rendering:geometricPrecision; text-rendering:geometricPrecision; image-rendering:optimizeQuality; fill-rule:evenodd; clip-rule:evenodd"
viewBox="0 0 2196.67 1725.34"
 xmlns:xlink="http://www.w3.org/1999/xlink"
 xmlns:xodm="http://www.corel.com/coreldraw/odm/2003">
 <defs>
  <style type="text/css">
   <![CDATA[
    .fil0 {fill:url(#id0)}
    .fil3 {fill:url(#id1)}
    .fil1 {fill:url(#id2)}
    .fil2 {fill:url(#id3)}
   ]]>
  </style>
  <linearGradient id="id0" gradientUnits="userSpaceOnUse" x1="-0" y1="862.67" x2="2196.67" y2="862.67">
   <stop offset="0" style="stop-opacity:1; stop-color:#B68234"/>
   <stop offset="0.490196" style="stop-opacity:1; stop-color:#EDC165"/>
   <stop offset="1" style="stop-opacity:1; stop-color:#B9893C"/>
  </linearGradient>
  <linearGradient id="id1" gradientUnits="userSpaceOnUse" xlink:href="#id0" x1="1047.38" y1="1344.38" x2="1621.91" y2="1344.38">
  </linearGradient>
  <linearGradient id="id2" gradientUnits="userSpaceOnUse" x1="501.37" y1="742.61" x2="1637.37" y2="742.61">
   <stop offset="0" style="stop-opacity:1; stop-color:#1A2E55"/>
   <stop offset="0.470588" style="stop-opacity:1; stop-color:#2A6FDB"/>
   <stop offset="1" style="stop-opacity:1; stop-color:#1A2E55"/>
  </linearGradient>
  <linearGradient id="id3" gradientUnits="userSpaceOnUse" x1="1650.66" y1="1112.73" x2="2029.56" y2="1045.37">
   <stop offset="0" style="stop-opacity:1; stop-color:#2A6FDB"/>
   <stop offset="0.458824" style="stop-opacity:1; stop-color:#224F98"/>
   <stop offset="1" style="stop-opacity:1; stop-color:#1A2E55"/>
  </linearGradient>
 </defs>
 <g id="Camada_x0020_1">
  <metadata id="CorelCorpID_0Corel-Layer"/>
  <g id="_1327248421984">
   <path class="fil0" d="M-0 1707.86c197.47,63.59 564.03,-61.39 725.38,-135.24 107.84,-49.36 191.27,-106.69 272.26,-168.53 147.13,-112.34 815.07,-800.97 955.87,-974.76l117.95 132.38 125.2 -561.71 -567.21 106.63 122.13 117.17c-637.27,701.62 -925.82,1320.43 -1751.59,1484.06z"/>
   <path class="fil1" d="M612.9 1331.18l236.02 -233.36c-8.55,-29.62 -24.41,-64.24 -35.12,-100.48 -39.2,-132.7 -57.1,-313.98 -26.51,-447.09 69.6,-302.83 372.54,-311.47 564.08,-170.27 29.99,22.1 87.66,67.95 107.38,84.4l172.53 -199.66c-110.18,-65.87 -238.09,-103.59 -374.53,-103.59 -413.71,0 -749.09,346.63 -749.09,774.2 0,144.65 38.43,280 105.24,395.84z"/>
   <path class="fil2" d="M1679.11 1435.5c-13.73,29.05 -11.11,102.26 -11.2,147.04 203.54,-138.4 337.94,-376.56 337.94,-647.2 0,-133.67 -32.78,-259.42 -90.47,-369.14l-232.78 251.2c62.79,185.26 99.43,400.41 -3.48,618.1z"/>
   <path class="fil3" d="M1150.99 1468.98l-103.6 0 0 209.88c33.62,10.09 68.22,17.79 103.6,22.97l0 -232.85zm160.11 -145.04l-103.6 0 0 383.9c16.28,1.1 32.7,1.71 49.25,1.71 18.28,0 36.4,-0.71 54.35,-2.04l0 -383.57zm154.46 -171.41l-103.6 0 0 549.39c35.39,-5.14 69.98,-12.82 103.6,-22.88l0 -526.51zm156.35 -173.3l-103.6 0 0 681.78c35.92,-13.84 70.53,-30.45 103.6,-49.57l0 -632.21z"/>
  </g>
 </g>
</svg>
